# xmcd
# 
# Track frame offsets:
#     150
#     12825
#     44772
#     71310
#     102814
#     134464
#     154096
#     186142
#     210694
# 
# Disc length: 3045
# 
# Revision: 6
# Processed by: cddbd v1.5.2PL0 Copyright (c) Steve Scherf et al.
# Submitted via: fre:ac v1.0.31
# 
DISCID=780be309
DTITLE=New Age - A Musical Escape - Inner Peace
DYEAR=2000
DGENRE=New Age
TTITLE0=In The Beginning
TTITLE1=The Wind Beckons
TTITLE2=Golden Meadows
TTITLE3=Enchanted Forest
TTITLE4=Dance of the Fireflies
TTITLE5=Pool of Serenity
TTITLE6=Nightfall - Music of the Jungle
TTITLE7=Wish Upon A Star
TTITLE8=The Awakening
EXTD=YEAR: 2000
EXTT0=
EXTT1=
EXTT2=
EXTT3=
EXTT4=
EXTT5=
EXTT6=
EXTT7=
EXTT8=
PLAYORDER=
